<?xml version="1.0" encoding="UTF-8" standalone="no"?>
<!-- Created with Inkscape (http://www.inkscape.org/) -->

<svg
   width="54.058014mm"
   height="37.263496mm"
   viewBox="0 0 54.058014 37.263496"
   version="1.1"
   id="svg5"
   xml:space="preserve"
   xmlns="http://www.w3.org/2000/svg"
   xmlns:svg="http://www.w3.org/2000/svg"><defs
     id="defs2" /><g
     id="layer1"
     transform="translate(-123.33364,-47.75714)"><path
       style="fill:#aa8800;fill-opacity:1;stroke-width:0;stroke-dasharray:none"
       d="m 158.73029,69.037658 c -0.0926,2.974674 -2.62338,9.296353 -3.85787,10.800926 -1.54068,1.877729 -4.70476,2.333568 -6.78994,2.48594 l 0.31636,-1.43705 -1.51104,-0.405485 0.51393,-1.355735 -1.3403,-0.384735 c 1.55695,-1.866703 4.46399,-1.855297 7.44903,-2.915664 0,0 1.17764,-5.790546 2.34673,-7.696627 0.69144,-1.12731 2.91435,-0.416231 2.8731,0.90843 z"
       id="path1720-3" /><path
       style="fill:#6f3716;fill-opacity:1;stroke-width:0.19207"
       d="m 127.21979,53.385315 c -0.60824,-1.9097 1.04907,-4.607294 2.95129,-5.238531 3.5741,-1.186032 7.24841,0.446436 9.59168,3.394308 1.86982,2.352269 1.59536,8.327678 3.83666,10.329166 1.44373,1.289245 8.1485,-5.255264 12.76432,-5.491317 7.70262,-0.393912 14.77113,3.288424 21.0279,0.990608 -1.91072,8.840937 -8.02055,13.248868 -13.42835,14.977773 -6.44328,2.059958 -13.96143,1.810133 -20.65899,0.86043 -2.55865,-0.362812 -6.14742,-2.731337 -7.64439,-4.83785 -2.35336,-3.311597 0.90462,-9.155667 -1.32809,-12.549777 -1.70976,-2.599143 -6.16786,0.529544 -7.11203,-2.43481 z"
       id="path1568" /><path
       style="fill:#aa8800;fill-opacity:1;stroke-width:0;stroke-dasharray:none"
       d="m 164.30547,70.603287 c 0.24814,2.965753 -1.54306,9.535365 -2.59741,11.171243 -1.31584,2.041598 -4.40703,2.856273 -6.4611,3.246106 l 0.14994,-1.463802 -1.54751,-0.230027 0.35553,-1.405613 -1.3755,-0.228939 c 1.33326,-2.032505 4.22253,-2.353613 7.06674,-3.748382 0,0 0.50772,-5.88723 1.45117,-7.914498 0.55798,-1.198986 2.84764,-0.746777 2.95814,0.573912 z"
       id="path1720" /><path
       style="fill:#aa8800;fill-opacity:1;stroke-width:0;stroke-dasharray:none"
       d="m 127.17029,51.78129 c -0.77471,1.512534 -2.38207,2.335002 -3.83666,3.393979 0.32046,0.348141 0.75773,0.462658 1.2245,0.518169 1.54567,-0.821867 3.80113,-2.150784 5.86999,-2.419688 -0.21071,-0.720673 -2.48988,-1.320455 -3.25783,-1.49246 z"
       id="path1866" /><circle
       style="fill:#ffffff;fill-opacity:1;stroke-width:0;stroke-dasharray:none"
       id="path1920"
       cx="131.60062"
       cy="50.055897"
       r="0.74704397" /></g></svg>
