<?xml version="1.0" encoding="UTF-8" standalone="no"?>
<!-- Created with Inkscape (http://www.inkscape.org/) -->

<svg
   width="39.911766mm"
   height="23.467651mm"
   viewBox="0 0 39.911766 23.467651"
   version="1.1"
   id="svg5"
   xml:space="preserve"
   xmlns="http://www.w3.org/2000/svg"
   xmlns:svg="http://www.w3.org/2000/svg"><defs
     id="defs2"><clipPath
       clipPathUnits="userSpaceOnUse"
       id="clipPath7976"><ellipse
         style="fill:#ffffff;fill-opacity:1;stroke:#333333;stroke-width:0.2;stroke-linecap:round;stroke-linejoin:round;stroke-dasharray:none;stroke-opacity:1"
         id="ellipse7978"
         cx="79.310867"
         cy="107.17402"
         rx="15.214234"
         ry="9.8559608" /></clipPath></defs><g
     id="layer1"
     transform="translate(42.252667,-69.657186)"><path
       style="fill:#999999;fill-opacity:1;stroke:none;stroke-width:0.185874;stroke-linecap:round;stroke-linejoin:round;stroke-dasharray:none;stroke-opacity:1"
       d="m -14.592198,75.364408 c 1.693157,-2.067044 3.8341,-3.97124 6.4375868,-5.707221 0.083536,1.704285 -0.1803962,4.080832 -1.289756,8.093066 z"
       id="path4084" /><path
       style="fill:#b3b3b3;fill-opacity:1;stroke:none;stroke-width:0.185874;stroke-linecap:round;stroke-linejoin:round;stroke-dasharray:none;stroke-opacity:1"
       d="m -16.37261,78.56586 c 2.334737,-2.218531 4.457195,-4.877106 7.0125355,-6.638341 -0.2467,2.967592 -1.2424335,6.016053 -1.8647045,9.024193 z"
       id="path4084-7" /><path
       style="fill:#999999;fill-opacity:1;stroke:none;stroke-width:0.185874;stroke-linecap:round;stroke-linejoin:round;stroke-dasharray:none;stroke-opacity:1"
       d="m -28.516637,75.403612 c -2.057343,-2.038878 -3.5139,-4.466942 -7.080108,-5.528387 -0.286649,2.305525 0.486779,5.237524 1.473987,8.295861 z"
       id="path4086" /><path
       style="fill:#b3b3b3;fill-opacity:1;stroke:none;stroke-width:0.185874;stroke-linecap:round;stroke-linejoin:round;stroke-dasharray:none;stroke-opacity:1"
       d="m -26.850902,78.014047 c -2.491795,-2.106609 -4.7155,-4.583709 -7.475385,-6.319828 -0.07242,2.382161 1.246176,6.058205 1.869264,9.087308 z"
       id="path4086-9" /><ellipse
       style="fill:#ffffff;fill-opacity:1;stroke:#333333;stroke-width:0;stroke-linecap:round;stroke-linejoin:round;stroke-dasharray:none;stroke-opacity:1"
       id="path3302"
       cx="-21.486347"
       cy="83.268875"
       rx="15.214234"
       ry="9.8559608" /><path
       style="fill:#666666;fill-opacity:1;stroke:none;stroke-width:0.2;stroke-linecap:round;stroke-linejoin:round;stroke-dasharray:none;stroke-opacity:1"
       d="m 80.115248,102.51197 c 1.194627,0.68492 1.263216,2.36574 2.355498,3.16564 1.995135,1.46107 4.519267,2.1489 6.953064,2.587 2.388962,0.43003 7.282072,0 7.282072,0 l 4.525088,-6.62709 -20.710849,-9.857182 -24.517845,9.857182 6.352345,5.46996 c 0,0 4.889106,0.52307 7.317901,0.2786 2.289698,-0.23047 4.842427,-0.28495 6.708076,-1.63224 1.036455,-0.74848 1.135248,-2.60558 2.248358,-3.23443 0.547513,-0.25641 0.94856,-0.31574 1.486292,-0.007 z"
       id="path7951"
       clip-path="url(#clipPath7976)"
       transform="translate(-100.79721,-23.905148)" /><path
       style="fill:none;fill-opacity:1;stroke:#333333;stroke-width:0.2;stroke-linecap:round;stroke-linejoin:round;stroke-dasharray:none;stroke-opacity:1"
       d="m -27.849942,84.609472 c -0.352599,4.89424 5.85835,5.3363 6.293865,0.24814 0.254882,5.09377 6.576,4.6147 6.445401,-0.15939"
       id="path3141" /><path
       style="fill:none;fill-opacity:1;stroke:#333333;stroke-width:0.2;stroke-linecap:round;stroke-linejoin:round;stroke-dasharray:none;stroke-opacity:1"
       d="m -17.229157,85.759002 c 1.384226,-0.78043 2.946688,-1.1707 4.472051,-1.57539 0.425071,-0.11277 0.839232,-0.26948 1.270468,-0.35573 1.204884,-0.24097 1.8764328,-0.20295 3.0999458,-0.30491 2.704578,-0.22538 0.315108,-0.0838 2.642573,-0.2541 0.845873,-0.0619 1.695067,-0.0906 2.54094,-0.15245 0.152984,-0.0112 0.305517,-0.0291 0.457369,-0.0508 0.08551,-0.0122 0.172151,-0.0235 0.254093,-0.0508 0.02273,-0.008 0.04312,-0.0735 0.05082,-0.0508"
       id="path3143" /><path
       style="fill:none;fill-opacity:1;stroke:#333333;stroke-width:0.2;stroke-linecap:round;stroke-linejoin:round;stroke-dasharray:none;stroke-opacity:1"
       d="m -16.900743,86.551832 c 3.912021,0.26271 7.7757968,-0.92121 11.6883148,-0.4715 0.587807,0.0676 1.15239,0.26895 1.727841,0.40655 0.203784,0.0487 0.408355,0.0949 0.609824,0.15246"
       id="path3145" /><path
       style="fill:none;fill-opacity:1;stroke:#333333;stroke-width:0.2;stroke-linecap:round;stroke-linejoin:round;stroke-dasharray:none;stroke-opacity:1"
       d="m -25.362921,85.605502 c -2.618459,-1.17267 -5.354603,-2.12265 -8.131002,-2.8498 -0.5528,-0.14478 -1.120611,-0.22551 -1.67702,-0.35573 -0.240154,-0.0562 -0.470447,-0.15088 -0.711461,-0.20328 -0.165976,-0.0361 -5.284178,-1.24406 -5.43761,-1.39752"
       id="path3149" /><path
       style="fill:none;fill-opacity:1;stroke:#333333;stroke-width:0.2;stroke-linecap:round;stroke-linejoin:round;stroke-dasharray:none;stroke-opacity:1"
       d="m -26.092847,86.445782 c -4.030385,-2.63332 -9.257022,-2.42858 -13.925431,-2.4767 -0.526378,-0.005 -1.494364,-0.13838 -2.134389,0.10163"
       id="path3151" /><path
       style="fill:none;fill-opacity:1;stroke:#333333;stroke-width:0.2;stroke-linecap:round;stroke-linejoin:round;stroke-dasharray:none;stroke-opacity:1"
       d="m -25.362921,87.250022 c -1.010959,0.0317 -2.027279,-0.0531 -3.036448,0.0359 -0.790919,0.0698 -0.658913,0.099 -1.581108,0.21561 -1.30194,0.16461 0.08042,-0.063 -1.221766,0.12577 -0.210476,0.0305 -0.418409,0.0771 -0.628848,0.1078 -0.322691,0.0471 -0.646912,0.0831 -0.970227,0.12577 -0.22169,0.0292 -0.442405,0.0664 -0.664785,0.0898 -0.814075,0.0857 -0.56502,0.008 -1.347536,0.14374 -0.02344,0.004 -1.021167,0.21695 -1.095996,0.23358 -0.282208,0.0627 -0.560147,0.14526 -0.844455,0.19763 -0.408625,0.0753 -0.184589,-0.0111 -0.521047,0.0898 -0.244612,0.0734 -0.460565,0.21811 -0.70072,0.30544 -0.23764,0.0864 0.06076,-0.0287 -0.125769,0.018 -0.01431,0.004 -0.0625,0.0298 -0.08984,0.0359 -0.457978,0.10177 -0.914228,0.16171 -1.383469,0.16171"
       id="path3159" /><ellipse
       style="fill:#333333;fill-opacity:1;stroke:#333333;stroke-width:0;stroke-linecap:round;stroke-linejoin:round;stroke-dasharray:none;stroke-opacity:1"
       id="path3213"
       cx="-25.693142"
       cy="80.499435"
       rx="0.77185249"
       ry="0.75715715" /><ellipse
       style="fill:#333333;fill-opacity:1;stroke:#333333;stroke-width:0;stroke-linecap:round;stroke-linejoin:round;stroke-dasharray:none;stroke-opacity:1"
       id="path3213-0"
       cx="-17.554615"
       cy="80.499435"
       rx="0.77185249"
       ry="0.75715715" /><path
       style="fill:none;fill-opacity:1;stroke:#333333;stroke-width:0.2;stroke-linecap:round;stroke-linejoin:round;stroke-dasharray:none;stroke-opacity:1"
       d="m -17.658833,87.243582 c 0.343117,0.0406 0.692952,0.0452 1.034235,0.10209 0.108929,0.0182 0.21399,0.057 0.323408,0.0719 0.406088,0.0554 1.53011,0.0621 1.688912,0.0719 0.500838,0.0307 1.152137,0.13482 1.652977,0.2156 0.836686,0.13495 0.306678,0.0587 1.078029,0.25154 0.430255,0.10757 0.86338,0.14398 1.293635,0.25154 0.217088,0.0543 0.427919,0.13324 0.6468158,0.17968 0.177319,0.0376 0.361276,0.0363 0.539015,0.0719 0.122626,0.0245 0.238405,0.076 0.359344,0.10781 0.106796,0.0281 0.218003,0.0389 0.323408,0.0719 0.08707,0.0272 0.16447,0.0806 0.251539,0.1078 0.105407,0.0329 0.217464,0.0407 0.323411,0.0719 0.305162,0.0898 0.589529,0.24213 0.898356,0.32341 0.118131,0.0311 0.244049,0.0315 0.359343,0.0719 0.1264,0.0442 0.234196,0.132 0.359344,0.17968 0.334775,0.12753 0.701622,0.18107 1.042093,0.28747 0.231498,0.0723 0.455658,0.16638 0.682752,0.25154 0.08541,0.032 0.173318,0.0609 0.25154,0.1078 0.119986,0.072 0.206076,0.17967 0.359344,0.17967"
       id="path3300" /><path
       style="fill:#fda9e7;fill-opacity:1;stroke:none;stroke-width:0.2;stroke-linecap:round;stroke-linejoin:round;stroke-dasharray:none;stroke-opacity:1"
       d="m -21.55564,85.237982 c -0.552675,1e-5 -1.52025,-1.00304 -1.270468,-1.49338 0.354575,-0.36612 2.283734,-0.34072 2.502824,0.0127 0.269996,0.40112 -0.70942,1.48071 -1.232356,1.4807 z"
       id="path5717" /><ellipse
       style="fill:#8b5d3a;fill-opacity:1;stroke:none;stroke-width:0.2;stroke-linecap:round;stroke-linejoin:round;stroke-dasharray:none;stroke-opacity:1"
       id="path8033"
       cx="-19.205288"
       cy="86.048149"
       rx="0.86391896"
       ry="0.49767154" /></g></svg>
