<?xml version="1.0" encoding="UTF-8" standalone="no"?>
<!-- Created with Inkscape (http://www.inkscape.org/) -->

<svg
   width="59.212639mm"
   height="27.743179mm"
   viewBox="0 0 59.212639 27.743179"
   version="1.1"
   id="svg5"
   xml:space="preserve"
   xmlns="http://www.w3.org/2000/svg"
   xmlns:svg="http://www.w3.org/2000/svg"><defs
     id="defs2" /><g
     id="layer1"
     transform="translate(-82.694437,-130.25053)"><path
       style="fill:#0dc8ff;fill-opacity:1;stroke-width:0;stroke-dasharray:none"
       d="m 116.37497,131.11241 c -1.08437,-0.0571 -2.17009,-0.0784 -3.2524,-0.20327 -1.32304,-0.15266 -2.63579,-0.39271 -3.96387,-0.50819 -1.79793,-0.15634 -3.68397,-0.19186 -5.48842,-0.10164 -0.44061,0.022 -2.47446,0.27434 -2.64258,0.30491 -0.58213,0.10585 -1.145383,0.30254 -1.727843,0.40655 -0.36838,0.0658 -0.75054,0.031 -1.11801,0.10164 -1.62983,0.31343 -3.20711,1.00128 -4.77696,1.52456 -0.63146,0.21049 -1.29965,0.2977 -1.93112,0.50819 -1.07563,0.35855 -2.02559,0.95768 -3.04912,1.42292 -0.38813,0.17643 -0.75741,0.26028 -1.11801,0.50819 -0.35753,0.2458 -0.66651,0.55653 -1.01638,0.8131 -0.31861,0.23365 -0.71059,0.35964 -1.01638,0.60983 -0.5287,0.43258 -1.12283,1.06378 -1.52456,1.6262 -0.48329,0.67661 -0.81192,1.7184 -0.91473,2.54094 -0.0336,0.26894 0.0299,0.54372 0,0.8131 -0.049,0.44107 -0.2142,0.97271 -0.10164,1.42292 0.0809,0.32371 0.30103,0.59819 0.40655,0.91474 0.0442,0.13252 0.0323,0.28527 0.10164,0.40655 0.0713,0.1248 0.21136,0.19578 0.30491,0.30491 1.23479,1.44059 3.04478,2.06641 4.77696,2.74422 1.16522,0.45595 2.32318,0.87118 3.55731,1.11801 4.80967,0.96193 9.541583,-0.55484 14.229263,-1.42293 1.27382,-0.23589 2.56931,-0.58832 3.86222,-0.71146 0.33727,-0.0321 0.67794,0.0154 1.01638,0 1.94481,-0.0884 3.96461,-0.48259 5.89498,0 0.78589,0.19647 0.91217,0.49025 1.01637,1.21965 0.0948,0.66351 0.27847,1.58625 0,2.23603 -0.0377,0.0881 -0.13552,0.13551 -0.20328,0.20327 -0.0339,0.10164 -0.0618,0.20544 -0.10163,0.30492 -0.0744,0.186 -0.47142,1.12751 -0.60983,1.32128 -0.044,0.0617 -0.1497,0.0481 -0.20327,0.10164 -0.71866,0.71866 -0.34533,0.38574 -0.71146,1.11801 -0.0546,0.10926 -0.15516,0.19264 -0.20328,0.30492 -0.12491,0.29145 -0.16039,0.62568 -0.30491,0.91473 -0.0214,0.0429 -0.0922,0.0547 -0.10164,0.10164 -0.0249,0.12481 -0.13129,1.14552 -0.10164,1.21965 0.0356,0.089 0.16042,0.11757 0.20328,0.20328 0.0625,0.12494 0.0323,0.28526 0.10164,0.40655 0.28579,0.50014 0.85635,0.60176 1.32128,0.8131 0.94925,0.43147 0.0406,0.26832 1.32129,0.60982 0.23147,0.0617 0.47516,0.0623 0.71146,0.10164 3.88872,0.70704 -1.44832,-0.23249 2.13439,0.30491 0.34168,0.0513 0.67277,0.16711 1.01638,0.20328 1.04575,0.11008 2.33082,0.0164 3.35404,-0.10164 1.90922,-0.2203 3.79121,-0.89497 5.59006,-1.52456 1.24905,-0.43717 2.53925,-0.80704 3.76059,-1.32129 2.11834,-0.89193 5.29941,-2.56472 6.5048,-4.57369 0.62806,-1.04677 0.65337,-3.36859 0.30491,-4.47205 -0.10048,-0.31818 -0.28263,-0.60493 -0.40655,-0.91474 -0.14727,-0.36818 -0.24761,-0.75471 -0.40655,-1.11801 -0.21896,-0.50049 -0.54984,-0.94426 -0.8131,-1.42293 -0.37267,-0.67758 -0.67991,-1.39551 -1.11801,-2.03275 -0.65708,-0.95575 -2.06039,-1.90971 -2.74421,-2.54094 -1.37023,-1.26482 0.38772,0.0113 -1.11802,-1.11801 -0.5928,-0.4446 -1.29113,-0.95558 -1.93111,-1.32129 -2.82902,-1.61658 1.67914,1.21077 -1.52456,-0.71146 -0.24991,-0.14994 -0.45561,-0.36863 -0.71147,-0.50819 -1.84088,-1.00411 -3.88019,-1.5678 -5.89497,-2.03275 -0.56928,-0.13137 -1.15513,-0.13964 -1.72784,-0.20327 -0.34339,-0.0382 -0.67259,-0.1689 -1.01638,-0.20328 -0.3034,-0.0303 -0.61218,0.0378 -0.91473,0 -0.53018,-0.0663 -1.24429,-0.50818 -1.72784,-0.50818"
       id="path2759" /></g></svg>
