<?xml version="1.0" encoding="UTF-8" standalone="no"?>
<!-- Created with Inkscape (http://www.inkscape.org/) -->

<svg
   width="37.796738mm"
   height="11.643623mm"
   viewBox="0 0 37.796738 11.643623"
   version="1.1"
   id="svg5"
   xml:space="preserve"
   xmlns="http://www.w3.org/2000/svg"
   xmlns:svg="http://www.w3.org/2000/svg"><defs
     id="defs2" /><g
     id="layer1"
     transform="translate(-58.03589,-73.94364)"><path
       style="fill:#62a400;fill-opacity:1;stroke:#000000;stroke-width:0;stroke-dasharray:none"
       d="m 58.035893,73.943639 h 37.79674 c 0,0 -0.52762,11.609795 -18.89837,11.643546 -18.37076,0.03375 -18.89837,-11.643546 -18.89837,-11.643546 z"
       id="path5625-3" /><path
       style="fill:#ff6060;fill-opacity:1;stroke:#000000;stroke-width:0;stroke-dasharray:none"
       d="m 59.783723,73.943639 h 34.30107 c 0,0 -0.47882,10.046948 -17.15053,10.076155 -16.67172,0.02921 -17.15054,-10.076155 -17.15054,-10.076155 z"
       id="path5625-9-2" /><ellipse
       style="fill:#000000;fill-opacity:1;stroke:none;stroke-width:0;stroke-linecap:round;stroke-linejoin:round;stroke-dasharray:none;stroke-opacity:1"
       id="path43743-7-8"
       cx="83.396713"
       cy="66.730133"
       rx="0.25154004"
       ry="0.84742481"
       transform="rotate(7.1099941)" /><ellipse
       style="fill:#000000;fill-opacity:1;stroke:none;stroke-width:0;stroke-linecap:round;stroke-linejoin:round;stroke-dasharray:none;stroke-opacity:1"
       id="path43743-7-2-6-3"
       cx="106.07875"
       cy="35.291439"
       rx="0.25154004"
       ry="0.84742481"
       transform="rotate(24.617458)" /><ellipse
       style="fill:#000000;fill-opacity:1;stroke:none;stroke-width:0;stroke-linecap:round;stroke-linejoin:round;stroke-dasharray:none;stroke-opacity:1"
       id="path43743-5"
       cx="-109.63055"
       cy="32.862034"
       rx="0.24482261"
       ry="0.82817006"
       transform="matrix(-0.89522867,-0.44560704,-0.39922868,0.91685138,0,0)" /><ellipse
       style="fill:#000000;fill-opacity:1;stroke:none;stroke-width:0;stroke-linecap:round;stroke-linejoin:round;stroke-dasharray:none;stroke-opacity:1"
       id="path43743-7-4"
       cx="-61.217579"
       cy="87.891975"
       rx="0.23914455"
       ry="0.84679085"
       transform="matrix(-0.99148905,0.13019012,0.11766579,0.99305325,0,0)" /><ellipse
       style="fill:#000000;fill-opacity:1;stroke:none;stroke-width:0;stroke-linecap:round;stroke-linejoin:round;stroke-dasharray:none;stroke-opacity:1"
       id="path43743-7-2-0"
       cx="-96.703537"
       cy="50.76416"
       rx="0.24010251"
       ry="0.84370852"
       transform="matrix(-0.94953192,-0.31367041,-0.28567066,0.95832785,0,0)" /><ellipse
       style="fill:#000000;fill-opacity:1;stroke:none;stroke-width:0;stroke-linecap:round;stroke-linejoin:round;stroke-dasharray:none;stroke-opacity:1"
       id="path43743-7-2-0-1"
       cx="-117.88107"
       cy="1.5815735"
       rx="0.24010251"
       ry="0.84370852"
       transform="matrix(-0.76553751,-0.64339127,-0.62064895,0.78408856,0,0)" /><ellipse
       style="fill:#000000;fill-opacity:1;stroke:none;stroke-width:0;stroke-linecap:round;stroke-linejoin:round;stroke-dasharray:none;stroke-opacity:1"
       id="path43743-7-2-6-6"
       cx="-28.796183"
       cy="97.967773"
       rx="0.24117899"
       ry="0.84021658"
       transform="matrix(-0.90069444,0.43445313,0.39909749,0.9169085,0,0)" /></g></svg>
