<?xml version="1.0" encoding="UTF-8" standalone="no"?>
<!-- Created with Inkscape (http://www.inkscape.org/) -->

<svg
   width="28.905167mm"
   height="22.478844mm"
   viewBox="0 0 28.905167 22.478844"
   version="1.1"
   id="svg5"
   xml:space="preserve"
   xmlns="http://www.w3.org/2000/svg"
   xmlns:svg="http://www.w3.org/2000/svg"><defs
     id="defs2"><clipPath
       clipPathUnits="userSpaceOnUse"
       id="clipPath7976-7"><ellipse
         style="fill:#ffffff;fill-opacity:1;stroke:#333333;stroke-width:0.2;stroke-linecap:round;stroke-linejoin:round;stroke-dasharray:none;stroke-opacity:1"
         id="ellipse7978-6"
         cx="79.310867"
         cy="107.17402"
         rx="15.214234"
         ry="9.8559608" /></clipPath></defs><g
     id="layer1"
     transform="translate(37.319104,-96.583371)"><path
       style="fill:#999999;fill-opacity:1;stroke:none;stroke-width:0.159981;stroke-linecap:round;stroke-linejoin:round;stroke-dasharray:none;stroke-opacity:1"
       d="m -17.289823,102.4245 c 1.412245,-1.98409 2.993965,-3.923639 4.659627,-5.84113 -0.175935,2.827626 -0.47034,5.59688 -0.933546,8.28296 z"
       id="path4084-2" /><path
       style="fill:#b3b3b3;fill-opacity:1;stroke:none;stroke-width:0.159981;stroke-linecap:round;stroke-linejoin:round;stroke-dasharray:none;stroke-opacity:1"
       d="m -18.578513,105.70107 c 1.68136,-2.30735 3.202726,-4.68636 5.053472,-6.917831 -0.294429,3.200931 -0.884577,6.239961 -1.327391,9.359661 z"
       id="path4084-7-9" /><path
       style="fill:#999999;fill-opacity:1;stroke:none;stroke-width:0.159981;stroke-linecap:round;stroke-linejoin:round;stroke-dasharray:none;stroke-opacity:1"
       d="m -27.368552,102.46464 c -1.5957,-1.9413 -3.326236,-3.816374 -5.124694,-5.658115 0.117739,2.900499 0.626464,5.685415 1.066895,8.490515 z"
       id="path4086-0" /><path
       style="fill:#b3b3b3;fill-opacity:1;stroke:none;stroke-width:0.159981;stroke-linecap:round;stroke-linejoin:round;stroke-dasharray:none;stroke-opacity:1"
       d="m -26.09134,105.35073 c -1.813929,-2.11984 -3.320825,-4.40775 -5.442312,-6.359203 0.197098,3.063873 0.92247,6.127753 1.384513,9.191623 z"
       id="path4086-9-9" /><ellipse
       style="fill:#ffffff;fill-opacity:1;stroke:#333333;stroke-width:0;stroke-linecap:round;stroke-linejoin:round;stroke-dasharray:none;stroke-opacity:1"
       id="path3302-4"
       cx="-22.279919"
       cy="110.22094"
       rx="11.012303"
       ry="8.8412752" /><path
       style="fill:#666666;fill-opacity:1;stroke:none;stroke-width:0.2;stroke-linecap:round;stroke-linejoin:round;stroke-dasharray:none;stroke-opacity:1"
       d="m 83.038374,104.70002 c 1.995135,1.46107 3.951639,3.12649 6.385436,3.56459 2.388962,0.43003 7.282072,0 7.282072,0 l 4.525088,-6.62709 -20.710849,-9.857182 -24.517845,9.857182 6.352345,5.46996 c 0,0 4.781116,0.51672 7.209911,0.27225 2.289698,-0.23047 3.996115,-1.28886 5.861764,-2.63615 0.830025,-0.68559 1.578965,-2.78579 2.734217,-3.65284 0.618667,-0.46433 1.578248,-0.46602 2.338666,0.10452 0.705708,0.57919 1.067025,2.12405 2.539195,3.50481 z"
       id="path7951-2"
       clip-path="url(#clipPath7976-7)"
       transform="matrix(0.7238158,0,0,0.89704856,-79.686371,14.080618)" /><path
       style="fill:none;fill-opacity:1;stroke:#333333;stroke-width:0.161158;stroke-linecap:round;stroke-linejoin:round;stroke-dasharray:none;stroke-opacity:1"
       d="m -26.885988,111.4235 c -0.255216,4.39037 4.240367,4.78692 4.5556,0.2226 0.184487,4.56936 4.759812,4.13961 4.665282,-0.14299"
       id="path3141-1" /><path
       style="fill:none;fill-opacity:1;stroke:#333333;stroke-width:0.161158;stroke-linecap:round;stroke-linejoin:round;stroke-dasharray:none;stroke-opacity:1"
       d="m -19.198496,112.45468 c 1.001925,-0.70008 2.13286,-1.05017 3.236942,-1.4132 0.307673,-0.10116 0.607449,-0.24173 0.919584,-0.3191 0.872114,-0.21617 1.358192,-0.18206 2.24379,-0.27352 1.957617,-0.20218 0.22808,-0.0752 1.912736,-0.22795 0.612257,-0.0555 1.2269167,-0.0812 1.8391728,-0.13675 0.110733,-0.01 0.2211388,-0.0261 0.3310517,-0.0455 0.061896,-0.011 0.1246056,-0.0211 0.1839166,-0.0455 0.016452,-0.008 0.03121,-0.0659 0.036787,-0.0455"
       id="path3143-1" /><path
       style="fill:none;fill-opacity:1;stroke:#333333;stroke-width:0.161158;stroke-linecap:round;stroke-linejoin:round;stroke-dasharray:none;stroke-opacity:1"
       d="m -18.960785,113.16589 c 2.831583,0.23567 5.628245,-0.82636 8.460188,-0.42296 0.425464,0.0607 0.8341177,0.24126 1.2506384,0.3647 0.1475021,0.0437 0.2955745,0.0852 0.4414004,0.13676"
       id="path3145-4" /><path
       style="fill:none;fill-opacity:1;stroke:#333333;stroke-width:0.161158;stroke-linecap:round;stroke-linejoin:round;stroke-dasharray:none;stroke-opacity:1"
       d="m -25.085843,112.31699 c -1.895282,-1.05195 -3.875746,-1.90412 -5.885348,-2.55641 -0.400124,-0.12988 -0.811116,-0.20229 -1.213853,-0.31911 -0.173828,-0.0504 -0.340517,-0.13535 -0.514966,-0.18235 -0.120137,-0.0324 -3.824773,-1.11598 -3.935829,-1.25364"
       id="path3149-2" /><path
       style="fill:none;fill-opacity:1;stroke:#333333;stroke-width:0.161158;stroke-linecap:round;stroke-linejoin:round;stroke-dasharray:none;stroke-opacity:1"
       d="m -25.614174,113.07076 c -2.917257,-2.36221 -6.700379,-2.17855 -10.079448,-2.22172 -0.381001,-0.005 -1.081644,-0.12414 -1.544904,0.0912"
       id="path3151-3" /><path
       style="fill:none;fill-opacity:1;stroke:#333333;stroke-width:0.161158;stroke-linecap:round;stroke-linejoin:round;stroke-dasharray:none;stroke-opacity:1"
       d="m -25.085843,113.7922 c -0.731748,0.0285 -1.467377,-0.0476 -2.197829,0.0322 -0.572479,0.0626 -0.476932,0.0888 -1.144431,0.19341 -0.942364,0.14767 0.05821,-0.0565 -0.884333,0.11282 -0.152346,0.0273 -0.302851,0.0692 -0.45517,0.0967 -0.233569,0.0422 -0.468245,0.0745 -0.702266,0.11281 -0.160462,0.0262 -0.32022,0.0595 -0.481182,0.0806 -0.58924,0.0769 -0.40897,0.008 -0.975368,0.12894 -0.01697,0.004 -0.739137,0.19461 -0.793299,0.20953 -0.204267,0.0562 -0.405443,0.13031 -0.61123,0.17728 -0.295769,0.0675 -0.133608,-0.01 -0.377142,0.0806 -0.177054,0.0658 -0.333364,0.19565 -0.507192,0.27399 -0.172007,0.0775 0.04398,-0.0257 -0.09103,0.0161 -0.01036,0.004 -0.04524,0.0268 -0.06502,0.0322 -0.331491,0.0913 -0.661732,0.14506 -1.001376,0.14506"
       id="path3159-7" /><ellipse
       style="fill:#333333;fill-opacity:1;stroke:#333333;stroke-width:0;stroke-linecap:round;stroke-linejoin:round;stroke-dasharray:none;stroke-opacity:1"
       id="path3213-1"
       cx="-25.324862"
       cy="107.73662"
       rx="0.55867904"
       ry="0.67920673" /><ellipse
       style="fill:#333333;fill-opacity:1;stroke:#333333;stroke-width:0;stroke-linecap:round;stroke-linejoin:round;stroke-dasharray:none;stroke-opacity:1"
       id="path3213-0-6"
       cx="-19.434067"
       cy="107.73662"
       rx="0.55867904"
       ry="0.67920673" /><path
       style="fill:none;fill-opacity:1;stroke:#333333;stroke-width:0.161158;stroke-linecap:round;stroke-linejoin:round;stroke-dasharray:none;stroke-opacity:1"
       d="m -19.509502,113.78643 c 0.248353,0.0364 0.50157,0.0406 0.748595,0.0915 0.07884,0.0163 0.15489,0.0511 0.234089,0.0645 0.293932,0.0497 1.107517,0.0557 1.222461,0.0645 0.362514,0.0275 0.833935,0.12095 1.19645,0.19341 0.605607,0.12105 0.221979,0.0527 0.780295,0.22564 0.311425,0.0965 0.624928,0.12916 0.936353,0.22564 0.157132,0.0487 0.309735,0.11952 0.468176,0.16118 0.128346,0.0337 0.261498,0.0326 0.390148,0.0645 0.08876,0.022 0.172561,0.0682 0.260098,0.0967 0.0773,0.0252 0.157795,0.0349 0.234089,0.0645 0.06302,0.0244 0.119045,0.0723 0.182067,0.0967 0.0763,0.0295 0.157404,0.0365 0.23409,0.0645 0.220882,0.0806 0.426711,0.21721 0.650244,0.29012 0.0855,0.0279 0.176647,0.0283 0.260099,0.0645 0.09149,0.0396 0.169514,0.1184 0.260099,0.16118 0.242315,0.1144 0.507844,0.16243 0.754283,0.25787 0.167563,0.0649 0.329813,0.14926 0.494187,0.22564 0.06182,0.0287 0.12545,0.0546 0.182068,0.0967 0.086851,0.0646 0.149162,0.16117 0.2600994,0.16117"
       id="path3300-0" /><ellipse
       style="fill:#8b5d3a;fill-opacity:1;stroke:none;stroke-width:0.414413;stroke-linecap:round;stroke-linejoin:round;stroke-dasharray:none;stroke-opacity:1"
       id="path8033-1"
       cx="-101.32708"
       cy="-37.862152"
       rx="1.8764113"
       ry="0.98377299"
       transform="matrix(-0.13905205,-0.99028507,0.96651572,-0.25660743,0,0)" /><path
       style="fill:#8b443a;fill-opacity:1;stroke:none;stroke-width:0.161158;stroke-linecap:round;stroke-linejoin:round;stroke-dasharray:none;stroke-opacity:1"
       d="m -22.330073,111.98731 c -0.400034,0 -1.100381,-0.89978 -0.919584,-1.33964 0.256647,-0.32843 1.653002,-0.30565 1.811583,0.0114 0.195428,0.35983 -0.513489,1.32827 -0.891999,1.32826 z"
       id="path5717-9" /></g></svg>
