<?xml version="1.0" encoding="UTF-8" standalone="no"?>
<!-- Created with Inkscape (http://www.inkscape.org/) -->

<svg
   width="35.647163mm"
   height="34.39325mm"
   viewBox="0 0 35.647163 34.39325"
   version="1.1"
   id="svg5"
   xml:space="preserve"
   xmlns="http://www.w3.org/2000/svg"
   xmlns:svg="http://www.w3.org/2000/svg"><defs
     id="defs2"><clipPath
       clipPathUnits="userSpaceOnUse"
       id="clipPath4771"><ellipse
         style="display:inline;fill:#62a400;fill-opacity:1;stroke-width:0.26132"
         id="ellipse4773"
         cx="106.59956"
         cy="55.058922"
         rx="17.823584"
         ry="17.196623" /></clipPath></defs><g
     id="layer1"
     transform="translate(-10.897829,-44.5885)"><ellipse
       style="fill:#62a400;fill-opacity:1;stroke-width:0.26132"
       id="path177"
       cx="28.721413"
       cy="61.785126"
       rx="17.823584"
       ry="17.196623" /><g
       id="g4664"
       style="display:inline"
       clip-path="url(#clipPath4771)"
       transform="translate(-77.878151,6.7262039)"><path
         style="fill:#006400;fill-opacity:1;stroke:#000000;stroke-width:0;stroke-dasharray:none"
         d="m 31.980481,53.260531 c 1.212821,-0.06421 2.488825,-0.08613 3.677997,-0.333495 1.440333,-0.299606 0.242851,-0.26502 1.791846,-0.33349 0.941126,-0.0416 4.283798,-0.547206 5.224187,-0.47163 0.358111,0.02878 1.783316,0.162975 1.980461,0.25012 0.140586,0.06215 0.240761,0.181178 0.377229,0.25012 0.155128,0.07836 0.468858,0.07863 0.565847,0.250118 0.05022,0.08881 -0.05023,0.07794 0,0.166747 0.215805,0.381564 -0.03909,-0.353788 0.188615,0.25012 0.201437,0.534244 0.160097,1.110609 -0.471539,1.33397 -0.628585,0.222282 -1.321834,0.166746 -1.980459,0.166746 -0.929966,0 -4.119831,0.466789 -5.035574,0.304883 -0.922337,-0.163081 -1.80765,-0.530361 -2.734922,-0.666985 -0.186049,-0.02742 -0.379794,0.02742 -0.565843,0 -0.289996,-0.04273 -0.570862,-0.188697 -0.84877,-0.25012 -0.141368,-0.03124 -0.333424,0.04069 -0.471538,0 -0.04218,-0.01244 -0.05454,-0.06579 -0.09431,-0.08338 -0.07544,-0.03336 -0.207475,0.03336 -0.28292,0 -0.03977,-0.01758 -0.05213,-0.07094 -0.09431,-0.08338 -0.340676,-0.100393 -1.117847,0.13118 -1.414614,0 -0.02811,-0.01244 0.02223,-0.06373 0,-0.08338 -0.02223,-0.01965 -0.07208,0.01965 -0.09431,0 -0.189921,-0.167901 0.17712,-0.448738 0.282924,-0.666986 z"
         id="path1100-3"
         transform="translate(77.878154,-6.6628719)" /><path
         style="fill:#006400;fill-opacity:1;stroke:#000000;stroke-width:0;stroke-dasharray:none"
         d="m 33.387222,52.827488 c 1.651487,0.986152 3.472733,1.776651 5.284377,2.418276 0.61464,0.217683 1.262293,0.331197 1.880881,0.537392 0.189997,0.06333 0.351443,0.194318 0.537395,0.268698 0.922009,0.368805 1.903965,0.579707 2.866104,0.806093 0.148185,0.03487 0.311666,0.02148 0.447829,0.08957 0.35675,0.178374 0.618175,0.735488 0.895656,0.985221 0.396791,0.35711 0.898658,0.539194 1.343486,0.806092 0.05724,0.03435 0.1158,0.06846 0.179133,0.08957 0.02832,0.0094 0.08012,-0.02832 0.08956,0 0.04718,0.141547 0.0021,0.495771 0.08957,0.626959 0.07039,0.105577 0.287274,0.126723 0.358262,0.268698 0.0267,0.05341 -0.01889,0.122484 0,0.179131 0.238379,0.715132 0.130101,0.87539 -0.447829,1.164354 -0.202308,0.101156 -1.472718,-0.03867 -1.701749,-0.08957 -0.316677,-0.07037 -0.676894,-0.10205 -0.985221,-0.179131 -0.253109,-0.06328 -0.468146,-0.275468 -0.716526,-0.358262 -0.596424,-0.198808 -1.278157,-0.331658 -1.791317,-0.716526 -0.224927,-0.168698 -0.408628,-0.355452 -0.626959,-0.537395 -0.165391,-0.137824 -0.372004,-0.220438 -0.537395,-0.358262 -0.194615,-0.162179 -0.331251,-0.390149 -0.537396,-0.537395 -1.211159,-0.865116 -2.748084,-1.148096 -4.030456,-1.880881 -0.08468,-0.04839 -0.399184,-0.130487 -0.447828,-0.17913 -0.0561,-0.0561 -0.147484,-0.395084 -0.179134,-0.447832 -0.164449,-0.274081 -0.276092,-0.140509 -0.537392,-0.358261 -0.0827,-0.06891 -0.103016,-0.19258 -0.179134,-0.268698 -0.0472,-0.0472 -0.142099,-0.03402 -0.17913,-0.08956 -0.03312,-0.04968 0.0267,-0.125725 0,-0.179133 -0.0024,-0.0047 -0.174512,-0.08264 -0.179131,-0.08957 -0.08918,-0.133773 -0.08995,-0.314055 -0.179131,-0.447828 -0.07775,-0.116618 -0.206936,-0.234741 -0.268698,-0.358264 -0.07895,-0.157898 -0.128497,-0.397196 -0.268697,-0.537396 -0.04222,-0.04222 -0.152429,0.05341 -0.179131,0 -0.09346,-0.186922 0,-0.417972 0,-0.626959 z"
         id="path1102-8"
         transform="translate(77.878154,-6.6628719)" /><path
         style="fill:#006400;fill-opacity:1;stroke:#000000;stroke-width:0;stroke-dasharray:none"
         d="m 32.665253,53.829009 c 0.233185,-0.0384 0.472248,-0.05102 0.699556,-0.11519 0.494111,-0.139487 1.112773,-0.457538 1.632292,-0.575992 2.628176,-0.599249 -0.847646,0.372895 1.515701,-0.345594 0.791862,-0.240738 1.742432,-0.341342 2.448443,-0.806389 0.452343,-0.297957 1.082283,-0.419472 1.632295,-0.691187 0.09832,-0.04857 0.134865,-0.181824 0.233184,-0.230396 0.287161,-0.141865 -0.105247,0.334389 0.349778,-0.115204 0.528137,-0.521821 0.596116,-1.246109 1.049333,-1.84317 0.06596,-0.08689 0.184025,-0.133253 0.233184,-0.230396 0.184714,-0.365009 -0.241277,-0.107204 0.116598,-0.460795 0.07773,-0.0768 0.310913,-0.153595 0.233184,-0.230396 -0.380838,-0.376283 -0.490997,-0.180094 -1.049333,-0.345594 -0.166476,-0.04934 -0.296702,-0.193143 -0.466369,-0.230396 -0.189694,-0.04165 -0.388642,0 -0.582961,0 -1.591038,0 -1.009019,0.471205 -1.632295,1.497577 -0.194717,0.320643 -0.213859,0.158474 -0.466369,0.345594 -0.08795,0.06517 -0.134865,0.181824 -0.233188,0.230396 -0.301976,0.149182 -1.163522,0.391198 -1.515701,0.460794 -0.22188,0.04385 -0.895632,0.03927 -1.04933,0.11519 -0.222376,0.109866 -0.127403,0.0054 -0.349779,0.115204 -0.290892,0.143707 -0.53946,0.508937 -0.816145,0.69119 -0.305627,0.201313 -0.203753,0.04305 -0.582965,0.230395 -0.160363,0.07922 -0.619471,0.44644 -0.816146,0.575991 -0.172487,0.113622 -0.281787,0.369604 -0.466369,0.460791 -0.03476,0.01718 -0.08912,-0.02715 -0.116598,0 -0.07162,0.07078 -0.07702,0.268452 -0.233184,0.345595 -0.03476,0.01718 -0.08912,-0.02715 -0.116598,0 -0.05496,0.0543 0.05496,0.176093 0,0.230396 -0.108592,0.107293 -0.116585,-0.009 -0.116585,0.230398"
         id="path1104-6"
         transform="translate(77.878154,-6.6628719)" /><path
         style="fill:#006400;fill-opacity:1;stroke:#000000;stroke-width:0;stroke-dasharray:none"
         d="m 32.623333,53.851403 c 0.864082,-0.982354 1.204288,-2.24184 1.717989,-3.425405 0.214262,-0.493659 0.450621,-0.969593 0.644246,-1.48434 0.07158,-0.190299 0.153796,-0.376456 0.214748,-0.5709 0.173307,-0.552878 0.106924,-1.139378 0.214748,-1.7127 0.07185,-0.381994 0.252488,-0.771553 0.322123,-1.1418 0.02106,-0.111967 -0.02106,-0.230579 0,-0.342541 0.0143,-0.07613 0.197648,-0.751262 0.107379,-0.799259 -0.128053,-0.06809 -0.289112,0.02986 -0.429498,0 -0.110988,-0.02361 -0.214748,-0.07612 -0.322124,-0.114185 -0.143164,-0.03807 -0.28479,-0.0834 -0.429496,-0.114186 -0.231606,-0.04926 -1.119699,-0.375194 -1.395865,-0.228359 -0.659976,0.350905 -1.135356,1.518056 -1.288494,2.169421 -0.116814,0.496874 0.151463,1.115333 0,1.598523 -0.165919,0.529304 -0.204347,2.806677 -0.107367,3.425399 0.0083,0.0531 0.08473,0.06603 0.107367,0.114185 0.08229,0.175016 0.04902,0.498928 0.10738,0.685081 0.01602,0.05106 0.09136,0.06312 0.107367,0.114186 0.04528,0.144425 -0.02806,0.307437 0,0.456721 0.121288,0.644868 0.03341,0.808572 0.4295,1.37016 z"
         id="path1106-3"
         transform="translate(77.878154,-6.6628719)" /><path
         style="fill:#006400;fill-opacity:1;stroke:#000000;stroke-width:0;stroke-dasharray:none"
         d="M 32.426261,52.186016 C 31.4648,51.211093 31.073553,49.858035 30.399619,48.702724 30.169503,48.308241 29.889558,47.944981 29.63963,47.56274 c -0.10899,-0.16669 -0.200903,-0.344598 -0.316664,-0.506661 -0.05866,-0.08212 -0.496131,-0.580588 -0.569992,-0.696658 -0.07603,-0.119476 -0.111442,-0.262163 -0.189997,-0.379995 -0.135604,-0.203404 -0.641604,-0.857562 -0.823322,-1.01332 -0.03206,-0.02748 -0.0889,0.01889 -0.126667,0 -0.490196,-0.245099 -0.8572,-0.689295 -1.393315,-0.823325 -0.102403,-0.02561 -0.21517,-0.029 -0.316663,0 -0.180165,0.05148 -1.055104,0.526894 -1.139986,0.696659 -0.04947,0.09893 0.02228,0.268621 0,0.379994 -0.01546,0.07729 -0.102055,0.219856 -0.06333,0.316664 0.194281,0.485704 0.872746,1.034555 1.26665,1.329984 0.152918,0.114689 0.12869,0.160861 0.253331,0.316661 0.205688,0.257112 0.62528,0.620033 0.886656,0.823325 0.470093,0.365628 0.9969,0.64552 1.456648,1.01332 0.245943,0.196755 0.423243,0.571225 0.633325,0.823322 0.264822,0.317789 0.615606,0.48894 0.886656,0.759992 0.107646,0.107643 0.155874,0.263046 0.253331,0.379995 0.05734,0.06881 0.143914,0.113196 0.189997,0.189997 0.02172,0.03621 -0.01889,0.0889 0,0.126667 0.03167,0.06333 0.142499,0.126664 0.189997,0.189997 0.146013,0.19468 0.222753,0.449874 0.379995,0.633325 0.06869,0.08014 0.153193,0.156618 0.25333,0.189997 0.112922,0.03764 0.26434,-0.02891 0.379995,0 0.0458,0.01146 0.07946,0.06333 0.126666,0.06333 0.129226,0 -0.0026,-0.06333 0.126664,-0.06333"
         id="path1108-7"
         transform="translate(77.878154,-6.6628719)" /><path
         style="fill:#006400;fill-opacity:1;stroke:#000000;stroke-width:0;stroke-dasharray:none"
         d="m 32.362928,52.249347 c -0.724461,-0.258707 -1.482971,-0.410035 -2.216637,-0.633325 -0.236392,-0.07195 -0.45907,-0.185446 -0.696658,-0.253331 -0.207008,-0.05915 -0.425125,-0.07187 -0.633325,-0.126664 -0.457656,-0.120435 -0.637755,-0.233695 -1.076653,-0.379994 -0.291606,-0.0972 -0.597186,-0.149947 -0.886656,-0.253331 -0.151411,-0.05407 -0.289872,-0.142044 -0.443329,-0.189997 -2.015136,-0.629732 0.639824,0.297717 -1.01332,-0.253331 -0.397162,-0.132387 -0.821891,-0.267284 -1.203319,-0.443328 -0.171442,-0.07913 -0.328839,-0.189822 -0.50666,-0.25333 -0.120931,-0.04319 -0.256524,-0.02805 -0.379995,-0.06333 -0.455702,-0.130199 -0.882611,-0.357535 -1.329984,-0.506659 -0.361139,-0.12038 -0.245283,-0.0049 -0.569992,-0.126667 -0.362507,-0.13594 -0.128787,-0.111363 -0.443328,-0.189997 -0.286382,-0.0716 -0.606875,-0.09674 -0.886656,-0.189997 -0.08957,-0.02986 -0.162246,-0.101825 -0.25333,-0.126664 -0.341171,-0.09305 -0.729211,-0.112789 -1.076653,-0.19 -0.384051,-0.08534 -0.752873,-0.121682 -1.139986,-0.189997 -0.718979,-0.126879 -1.486722,-0.416439 -1.773311,0.443327 -0.104125,0.312375 0.293,0.535398 0.50666,0.633326 0.420894,0.19291 0.83375,0.405788 1.266651,0.569994 0.535784,0.203229 0.635991,0.09329 1.203318,0.126664 0.316818,0.01863 0.633326,0.04222 0.949988,0.06333 0.732361,0.04882 1.490994,0.205026 2.216639,0.316662 0.847986,0.13046 1.596522,0.553286 2.406637,0.823325 0.613329,0.204441 0.303449,0.03957 0.949988,0.316661 0.379921,0.162825 0.740993,0.386964 1.139987,0.506661 0.103103,0.03093 0.211109,0.04222 0.316661,0.06333 0.147775,0.06333 0.289664,0.142713 0.443328,0.189997 0.122735,0.03776 0.256998,0.02643 0.379995,0.06333 0.09043,0.02713 0.164931,0.09352 0.25333,0.126666 0.163002,0.06112 0.341509,0.07162 0.506662,0.126664 0.381161,0.127056 0.313063,0.172072 0.759989,0.253331 0.08308,0.01511 0.169735,-0.01193 0.25333,0 0.175956,-0.123196 0.16174,0.103767 0.253331,0.126664 0.06144,0.01537 0.127527,-0.01042 0.189997,0 0.20728,0.03455 0.378624,0.189542 0.569992,0.25333 0.121825,0.04061 0.257001,0.02643 0.379997,0.06333 0.09043,0.02713 0.162552,0.100729 0.253331,0.126664 0.263694,0.07534 0.848754,0 1.139984,0"
         id="path1112-0"
         transform="translate(77.878154,-6.6628719)" /><path
         style="fill:#006400;fill-opacity:1;stroke:#000000;stroke-width:0;stroke-dasharray:none"
         d="m 32.426261,52.566011 c -0.947766,0.302882 -1.991196,0.189997 -2.976628,0.189997 -0.464439,0 -0.932463,0.0576 -1.393317,0 -0.172739,-0.02159 -0.333767,-0.106325 -0.506659,-0.126666 -0.558935,-0.06576 -1.147624,0.0296 -1.70998,0 -0.211868,-0.01114 -0.42149,-0.05156 -0.633325,-0.06333 -0.804144,-0.04468 -1.604989,0.03127 -2.406637,0.06333 -0.232033,0.0093 -0.465484,-0.02201 -0.696658,0 -0.586702,0.05588 -1.270172,0.213386 -1.836643,0.379997 -0.346084,0.101788 -0.669,0.272394 -1.013321,0.379995 -0.52833,0.165102 -1.053129,0.343527 -1.583314,0.506661 -0.485095,0.149259 -0.994601,0.233307 -1.456648,0.443328 -0.472715,0.21487 -0.948056,0.4295 -1.393316,0.696655 -0.679653,0.407792 0.09801,0.0073 -0.443328,0.316664 -0.232657,0.132948 -0.701627,0.348065 -0.886655,0.506662 -0.08014,0.06869 -0.11536,0.178691 -0.189998,0.253328 -0.09777,0.09777 -0.44381,0.345186 -0.569993,0.443327 -0.540099,0.420079 -0.970743,0.928434 -1.393316,1.456651 -0.08183,0.102285 -0.225076,0.175389 -0.25333,0.316661 -0.01242,0.0621 0.01041,0.127527 0,0.189997 -0.04393,0.263576 -0.05775,0.109927 -0.126665,0.316664 -0.114196,0.342588 -0.126665,0.58796 -0.126665,0.949989 0,0.06162 0.08887,0.722188 0.126665,0.759989 0.07215,0.07215 0.328469,-0.09575 0.379995,-0.126664 0.6625,-0.397502 -0.341354,0.146294 0.443328,-0.189997 0.38342,-0.164325 0.734183,-0.468347 1.076653,-0.696658 0.772233,-0.514824 1.588115,-0.952574 2.406637,-1.393317 0.390676,-0.210365 0.791527,-0.531942 1.203318,-0.696659 0.161633,-0.06465 0.34418,-0.06417 0.50666,-0.126664 0.114892,-0.04419 0.206562,-0.134948 0.316663,-0.189997 0.04534,-0.02267 1.148729,-0.522825 1.266651,-0.569995 0.405678,-0.162269 1.091291,-0.336153 1.519981,-0.443327 0.607848,-0.151961 0.0093,0.0342 0.759991,-0.126664 0.150277,-0.0322 0.291183,-0.104932 0.443327,-0.126664 0.335032,-0.04786 0.676958,-0.02596 1.013321,-0.06333 0.804656,-0.0894 1.605177,-0.202168 2.406637,-0.316664 0.230833,-0.03298 0.469033,-0.01275 0.696658,-0.06333 0.296965,-0.06599 0.576971,-0.21204 0.886655,-0.253331 0.231131,-0.03082 0.467476,-0.02037 0.696658,-0.06333 0.380516,-0.07135 0.820753,-0.324258 1.26665,-0.379995 0.481251,-0.06015 0.976249,-0.09392 1.45665,-0.189997 0.819568,-0.163915 -0.852527,0.063 0.569992,-0.126667 0.432784,-0.0577 0.850159,-0.114498 1.266651,-0.253328 0.207182,-0.06906 0.511071,-0.141978 0.696658,-0.25333 0.0512,-0.03072 0.07482,-0.09704 0.126664,-0.126667 0.316958,-0.181118 0.633328,-0.212077 0.633328,-0.633325 0,-0.126664 0.04005,-0.259829 0,-0.379995 -0.09391,-0.281723 -0.429583,-0.492913 -0.633328,-0.696658"
         id="path1140-2"
         transform="translate(77.878154,-6.6628719)" /><path
         style="fill:#006400;fill-opacity:1;stroke:#000000;stroke-width:0;stroke-dasharray:none"
         d="m 32.932923,52.882672 c 0.08444,0.147778 0.13884,0.317389 0.25333,0.443328 0.102402,0.112644 0.262173,0.156933 0.379995,0.253331 1.079008,0.882824 -0.929982,-0.50749 1.01332,0.949989 0.173881,0.130408 0.38568,0.201467 0.569994,0.316661 0.347594,0.217247 0.6854,0.450721 1.01332,0.696659 0.366318,0.274738 0.41611,0.39261 0.759992,0.633325 0.100843,0.07059 0.219495,0.114424 0.316661,0.189997 0.212098,0.164965 0.369165,0.39148 0.569992,0.569995 0.07889,0.07012 0.178694,0.115358 0.25333,0.189997 0.220427,0.220424 0.422201,0.552368 0.569995,0.823322 0.06781,0.124325 0.101531,0.269412 0.189997,0.379995 0.08444,0.105556 0.221078,0.157747 0.316661,0.253331 0.182145,0.182144 0.205566,0.492977 0.316664,0.696658 0.04289,0.07863 0.142529,0.114046 0.189998,0.189997 0.06025,0.09641 0.07582,0.21498 0.126664,0.316664 0.358925,0.717849 0.799639,1.397947 1.203319,2.089973 0.336574,0.576985 0.03758,0.183034 0.379995,0.696659 0.372382,0.558572 0.748593,1.098695 1.139986,1.646645 0.219538,0.307353 0.250103,0.280154 0.443328,0.569994 0.187629,0.281443 0.287007,0.596342 0.443328,0.886656 0.195739,0.363516 0.396026,0.665385 0.569992,1.01332 0.03893,0.07785 0.02905,0.173325 0.06333,0.25333 0.108752,0.253754 0.130588,0.205685 0.189997,0.443328 0.06333,0.253331 -0.126664,-0.253331 0,0.189997 0.04417,0.154588 0.151003,0.287354 0.189998,0.443328 0.05051,0.202039 0.01008,0.420336 0.06333,0.633325 0.179507,0.718024 0.316664,1.132539 0.316664,1.899976 0,0.147778 0.03584,0.299963 0,0.443328 -0.03701,0.148058 -0.192289,0.242652 -0.253331,0.379994 -0.05423,0.12201 -0.06696,0.260575 -0.126666,0.379998 -0.04721,0.09441 -0.137629,0.161681 -0.189998,0.25333 -0.03312,0.05796 -0.03348,0.130286 -0.06333,0.189998 -0.169473,0.338947 -0.615487,0.93215 -0.886656,1.203317 -0.12592,0.125923 -0.650602,0.04174 -0.823322,0.06333 -0.08637,0.0108 -0.166288,0.06333 -0.253331,0.06333 -0.237757,0 -0.489643,-0.16461 -0.696656,-0.25333 -0.455855,-0.195369 -0.592706,-0.503894 -0.759991,-0.949989 -0.09839,-0.262364 -0.227669,-0.493012 -0.316662,-0.75999 -0.113437,-0.340315 -0.214016,-0.438398 -0.316664,-0.823325 -0.03846,-0.144235 -0.02405,-0.29931 -0.06333,-0.443328 -0.02484,-0.09108 -0.0989,-0.163094 -0.126664,-0.253328 -0.05724,-0.186025 -0.08444,-0.379997 -0.126666,-0.569994 -0.08444,-0.29555 -0.159647,-0.5939 -0.253328,-0.886656 -0.130281,-0.407125 -0.317619,-0.794758 -0.443328,-1.203317 -0.168238,-0.546775 -0.314201,-1.101344 -0.506661,-1.646647 -0.237871,-0.673971 -0.107752,-0.215501 -0.379995,-0.75999 -0.277487,-0.554976 -0.434668,-1.177631 -0.759992,-1.709978 -0.377491,-0.617715 -0.72766,-1.208455 -1.076653,-1.836645 -0.171998,-0.309597 -0.411559,-0.569791 -0.569992,-0.886656 -0.218479,-0.436959 -0.414597,-0.859226 -0.696658,-1.26665 -0.25354,-0.366223 -0.59454,-0.695349 -0.823323,-1.076653 -0.05849,-0.09749 -0.06641,-0.220258 -0.126666,-0.316664 -0.04747,-0.07595 -0.142526,-0.114046 -0.189998,-0.189997 -0.06025,-0.0964 -0.07582,-0.214979 -0.126664,-0.316661 -0.09934,-0.198695 -0.227269,-0.361408 -0.316664,-0.569995 -0.08682,-0.202583 -0.120298,-0.42423 -0.189997,-0.633325 -0.0844,-0.253196 -0.331938,-0.78831 -0.379994,-1.076653 -0.02747,-0.164817 -0.02281,-0.34457 -0.06333,-0.506661 -0.02825,-0.113025 -0.198445,-0.541851 -0.25333,-0.633326 -0.14137,-0.235619 -0.516102,-0.525541 -0.633326,-0.759989 -0.100335,-0.20067 0.131062,-0.05894 -0.06333,-0.25333 -0.01492,-0.01492 -0.04841,0.01492 -0.06333,0 -0.142716,-0.142714 0.196001,-0.529773 0.316662,-0.569992 0.113998,-0.038 0.265999,0.038 0.379997,0 0.02003,-0.0067 -0.01492,-0.04841 0,-0.06333 0.102076,-0.102078 0.353989,0.104331 0.443328,0.126664 0.04096,0.01024 0.08661,-0.01336 0.126664,0 0.100137,0.03338 0.16106,0.138737 0.25333,0.189998 0.123794,0.06878 0.251074,0.131397 0.379995,0.19 0.07418,0.03372 0.443328,0.110474 0.443328,0.189997"
         id="path1142-2"
         transform="translate(77.878154,-6.6628719)" /><path
         style="fill:#006400;fill-opacity:1;stroke:#000000;stroke-width:0;stroke-dasharray:none"
         d="m 32.679592,52.629342 c -2.409457,1.808107 -5.383959,2.589905 -8.106566,3.799953 -1.060664,0.471406 -0.475624,0.278443 -1.51998,0.823323 -0.226154,0.117994 -0.472722,0.194516 -0.696658,0.316664 -0.483285,0.26361 -0.948104,0.562864 -1.393316,0.886656 -0.242655,0.176474 -0.452505,0.395597 -0.696658,0.569991 -0.200336,0.143098 -0.429742,0.24156 -0.633326,0.379995 -0.324721,0.220811 -0.623255,0.478838 -0.949988,0.696659 -0.180846,0.120565 -0.392425,0.19132 -0.569993,0.316663 -0.183337,0.129413 -0.33343,0.300668 -0.50666,0.443328 -0.185804,0.153014 -0.394393,0.278702 -0.569993,0.443328 -0.545867,0.511749 -0.365578,0.518356 -0.886656,1.076653 -0.365939,0.392078 -0.432317,0.340072 -0.823323,0.633325 -0.291191,0.218393 -0.593501,0.536046 -0.823323,0.823323 -0.310607,0.388257 -0.400684,0.840142 -0.633325,1.26665 -0.219347,0.402138 -0.536663,0.763334 -0.696658,1.20332 -0.137246,0.377425 -0.205601,0.814602 -0.316663,1.203317 -0.06407,0.22424 -0.103942,0.23399 -0.126665,0.506661 -0.01403,0.168304 0.02776,0.340072 0,0.506661 -0.032,0.191982 -0.09914,0.377315 -0.126665,0.569992 -0.110987,0.776904 0.143437,1.920941 0.633326,2.533301 0.0373,0.04663 0.06874,0.141147 0.126665,0.126667 0.2567,-0.06417 0.732024,-0.965944 0.823323,-1.20332 0.05517,-0.143444 0.07497,-0.298593 0.126665,-0.443328 0.02838,-0.07946 0.276236,-0.625234 0.316662,-0.759989 0.08093,-0.269777 0.139614,-0.546214 0.189998,-0.823323 0.01133,-0.06231 -0.01695,-0.128976 0,-0.189999 0.08934,-0.321615 0.220748,-0.630272 0.316663,-0.949987 0.03093,-0.103105 0.02929,-0.214543 0.06333,-0.316664 0.02986,-0.08956 0.09681,-0.163764 0.126665,-0.25333 0.12038,-0.361138 0.0049,-0.245282 0.126665,-0.569992 0.183695,-0.489853 0.486465,-0.892342 0.759991,-1.329984 0.05004,-0.08006 0.07252,-0.175985 0.126665,-0.253331 0.258418,-0.369167 0.560281,-0.533212 0.886655,-0.823322 0.888071,-0.789395 -0.313387,0.250055 0.443328,-0.506661 0.249308,-0.249307 0.601122,-0.306785 0.886656,-0.506659 0.481537,-0.337076 0.998362,-0.671793 1.519981,-0.949989 0.183457,-0.09784 0.386927,-0.154757 0.569993,-0.25333 0.201054,-0.10826 0.391682,-0.237348 0.569993,-0.379995 0.116565,-0.09325 0.192457,-0.23386 0.316663,-0.316664 0.133773,-0.08918 0.297855,-0.121539 0.443327,-0.189997 0.525743,-0.247407 1.070243,-0.486352 1.583314,-0.759989 0.501866,-0.267664 0.940159,-0.648277 1.456648,-0.886656 0.121228,-0.05595 0.260575,-0.06696 0.379996,-0.126667 0.13616,-0.06808 0.245672,-0.181689 0.379995,-0.253328 0.488475,-0.260522 1.034368,-0.431779 1.519982,-0.696658 0.159427,-0.08696 0.284578,-0.228471 0.443328,-0.316664 0.371022,-0.206124 0.777988,-0.352796 1.139983,-0.569992 0.358508,-0.215104 0.71609,-0.422997 1.076656,-0.633325 0.662686,-0.386567 1.290833,-0.829723 1.963309,-1.20332 0.165057,-0.0917 0.35301,-0.143579 0.506658,-0.253331 0.07288,-0.05206 0.117116,-0.137937 0.189998,-0.189997 0.15893,-0.113519 0.429035,-0.175704 0.569994,-0.316661 0.03338,-0.03338 0.03501,-0.0889 0.06333,-0.126667 0.105555,-0.140737 0.211108,-0.158329 0.316664,-0.316661 0.08918,-0.133773 0.126664,-0.295553 0.189997,-0.443328 0.08281,-0.193228 0.211495,-0.611251 0.126667,-0.823322 -0.04836,-0.120891 -0.302631,-0.214649 -0.379998,-0.253331 -0.101774,-0.05089 -0.270314,-0.146608 -0.379994,-0.126667 -0.158181,0.02876 -0.29192,0.135925 -0.443328,0.189998 -0.144735,0.05169 -0.312999,0.04521 -0.443328,0.126666 -0.03495,0.02183 -0.189997,0.443556 -0.189997,0.506662"
         id="path1148-5"
         transform="translate(77.878154,-6.6628719)" /><path
         style="fill:#006400;fill-opacity:1;stroke:#000000;stroke-width:0;stroke-dasharray:none"
         d="m 32.869589,53.326 c 0.04222,0.08445 0.08948,0.166555 0.126666,0.253331 0.26842,0.626316 0.797584,2.579314 0.823323,2.659967 0.486836,1.525421 0.996577,3.047886 1.519981,4.559943 0.37924,1.095581 0.191301,0.548439 0.506661,1.899976 0.166227,0.712403 0.348459,1.425995 0.443328,2.153306 0.03288,0.252074 0.02898,0.508113 0.06333,0.759992 0.06032,0.442306 0.155708,0.716954 0.253331,1.139986 0.106307,0.460658 0.156104,0.931492 0.253331,1.393314 0.177387,0.842595 0.420489,1.686118 0.569992,2.533304 0.04036,0.228684 -0.01781,0.465121 0,0.696655 0.02291,0.297675 0.106807,0.588767 0.126666,0.886656 0.06724,1.008547 -0.04391,2.029947 0,3.039962 0.03354,0.771395 0.149723,1.629119 0.06333,2.406637 -0.02839,0.255534 -0.127971,0.511876 -0.189999,0.759992 -0.06339,0.253558 -0.09214,0.735073 -0.253328,0.949989 -0.02832,0.03776 -0.09329,0.02995 -0.126667,0.06333 -0.01492,0.01492 0.01492,0.04841 0,0.06333 -0.239911,0.239911 -0.883391,0.25333 -1.203317,0.25333 -0.08444,0 -0.177803,0.03776 -0.253331,0 -0.150698,-0.07535 -1.110154,-1.016992 -1.203319,-1.203319 -0.06873,-0.137465 -0.07806,-0.297524 -0.126664,-0.443328 -0.04478,-0.134348 -0.152736,-0.243369 -0.189998,-0.379995 -0.133151,-0.488217 -0.02307,-0.443722 -0.06333,-0.886656 -0.0097,-0.107201 -0.05359,-0.20946 -0.06333,-0.316661 -0.03132,-0.344567 0,-0.731726 0,-1.076653 0,-1.482569 0.05271,-2.954253 0.126666,-4.433279 0.03336,-0.667136 -0.130241,-1.30598 -0.189997,-1.963309 -0.03425,-0.376743 0.02695,-0.762632 0,-1.139986 -0.01064,-0.148897 -0.05094,-0.294566 -0.06333,-0.443328 -0.01402,-0.168304 0.02389,-0.339471 0,-0.506658 -0.07052,-0.493663 -0.06966,8.7e-5 -0.126664,-0.569995 -0.0453,-0.452953 0.02143,-0.943377 0,-1.393314 -0.06386,-1.34093 -0.786408,-3.083566 -1.329984,-4.306615 -0.07669,-0.172546 -0.183205,-0.331343 -0.253331,-0.506659 -0.548907,-1.372269 -0.569994,-2.741049 -0.569994,-4.179948 0,-0.767191 0.394179,-1.762919 0.823325,-2.406637 0.08487,-0.127309 0.04524,-0.01508 0.189997,-0.06333 0.128239,-0.04275 0.208521,-0.172225 0.316662,-0.253331 z"
         id="path1150-7"
         transform="translate(77.878154,-6.6628719)" /><path
         style="fill:#006400;fill-opacity:1;stroke:#000000;stroke-width:0;stroke-dasharray:none"
         d="m 31.096278,53.832661 c -0.06333,0.189998 -0.09505,0.393658 -0.189998,0.569992 -0.249031,0.462489 -0.89618,1.340499 -1.203317,1.836645 -0.348411,0.562817 -0.726188,1.330889 -1.139986,1.836642 -0.06684,0.0817 -0.185756,0.108911 -0.253331,0.19 -0.131942,0.15833 -0.474993,0.738878 -0.633325,0.949987 -0.349594,0.466124 -0.712168,0.937712 -1.076653,1.393317 -0.248731,0.310914 -0.519702,0.626409 -0.823323,0.886656 -0.08014,0.06869 -0.183822,0.110558 -0.25333,0.189997 -0.08106,0.09264 -0.108938,0.224023 -0.189998,0.316661 -0.06951,0.07944 -0.175226,0.118996 -0.25333,0.19 -0.154638,0.140578 -0.284653,0.307319 -0.443328,0.443328 -0.137883,0.118184 -0.310566,0.192752 -0.443328,0.316661 -0.18584,0.17345 -0.313651,0.404556 -0.50666,0.569992 -0.398591,0.199297 -0.367068,0.15036 -0.696658,0.443328 -0.200827,0.178514 -0.370272,0.390244 -0.569993,0.569994 -0.290361,0.261324 -0.378849,0.251897 -0.633325,0.569992 -0.0769,0.09612 -0.108938,0.224023 -0.189998,0.316664 -0.06951,0.07944 -0.174438,0.11987 -0.25333,0.189998 -0.245455,0.21818 -0.499613,0.433932 -0.696658,0.696658 -0.422303,0.56307 -0.443833,0.858922 -0.759991,1.519981 -0.09378,0.196077 -0.224116,0.37333 -0.316662,0.569992 -0.0768,0.163203 -0.109334,0.345331 -0.189998,0.506661 -0.06808,0.13616 -0.194779,0.239472 -0.25333,0.379995 -0.104484,0.250761 -0.192225,0.981493 -0.25333,1.26665 -0.05471,0.255331 -0.114964,0.509876 -0.189998,0.759992 -0.03267,0.108889 -0.104369,0.205184 -0.126665,0.316661 -0.09559,0.477965 -0.09378,0.975543 -0.189998,1.45665 -0.08072,0.403604 -0.14501,0.798436 -0.189997,1.203317 -0.02765,0.248862 0.03542,0.512083 0,0.759992 -0.07408,0.51857 -0.202347,1.116873 -0.126665,1.646645 0.119421,0.835946 0.0044,-0.294801 0.126665,0.316664 0.01242,0.0621 -0.01242,0.127894 0,0.189997 0.0277,0.138481 0.268448,0.540369 0.379995,0.633326 0.07253,0.06044 0.168887,0.08444 0.25333,0.126663 0.5375,0.268751 1.169021,-0.08551 1.519981,-0.506658 0.10896,-0.130754 0.15645,-0.30339 0.25333,-0.443328 0.09385,-0.135565 0.233584,-0.237575 0.316663,-0.379997 0.05921,-0.101494 0.223581,-0.740024 0.25333,-0.823323 0.218632,-0.612166 0.441522,-1.194286 0.569993,-1.836642 0.101638,-0.50819 0.141056,-1.028284 0.316663,-1.519981 0.274283,-0.767995 0.600077,-1.515763 0.886655,-2.279973 0.250139,-0.667035 0.504226,-1.325115 0.823323,-1.963308 0.13116,-0.262319 0.30289,-0.502521 0.443328,-0.759992 0.220503,-0.404254 0.335855,-0.876419 0.569993,-1.266651 0.06955,-0.115911 0.180758,-0.20262 0.25333,-0.316661 0.182754,-0.287184 0.346471,-0.586301 0.506661,-0.886656 0.07566,-0.141861 0.11023,-0.303736 0.189997,-0.443328 0.254719,-0.445759 0.64454,-0.796054 0.949989,-1.203319 0.13701,-0.182679 0.277874,-0.36575 0.379995,-0.569992 0.0719,-0.143801 0.104786,-0.306991 0.189997,-0.443328 0.308031,-0.492847 0.739326,-0.921057 1.076653,-1.393317 0.115761,-0.162063 0.190548,-0.352518 0.316664,-0.506659 0.06684,-0.0817 0.187391,-0.107574 0.253328,-0.189997 0.106326,-0.132905 0.161293,-0.300159 0.253331,-0.443328 0.180501,-0.280778 0.379997,-0.548883 0.569994,-0.823325 0.28665,-0.414049 0.636993,-0.829738 0.886656,-1.26665 0.07977,-0.139592 0.100814,-0.309555 0.189997,-0.443328 0.0828,-0.124203 0.223409,-0.200097 0.316662,-0.316661 0.0769,-0.09612 0.119406,-0.215818 0.189997,-0.316664 0.187,-0.267142 0.486857,-0.554109 0.569994,-0.886656 0.01024,-0.04096 -0.01024,-0.0857 0,-0.126664 -0.04704,-0.11721 0.108204,-0.116155 0.126664,-0.189997 0.03584,-0.143365 0,-0.295553 0,-0.443328 0,-0.76041 -0.445505,-1.204111 -1.139986,-1.45665 -0.128868,-0.04686 -0.252611,0.06333 -0.379994,0.06333"
         id="path1152-4"
         transform="translate(77.878154,-6.6628719)" /><path
         style="fill:#006400;fill-opacity:1;stroke:#000000;stroke-width:0;stroke-dasharray:none"
         d="m 30.462953,54.339323 c -0.356053,2.314336 -0.253331,1.091305 -0.253331,3.673287 0,0.823322 -0.02138,1.646922 0,2.469967 0.02085,0.803053 0.103391,1.603653 0.126667,2.406637 0.04033,1.391531 -0.0016,2.798389 -0.189998,4.179948 -0.09687,0.710404 -0.205242,0.952714 -0.379997,1.709978 -0.192228,0.832988 -0.358098,1.69145 -0.506659,2.533304 -0.02958,0.167611 -0.02003,0.342061 -0.06333,0.506658 -0.06288,0.238961 -0.187195,0.458579 -0.25333,0.696659 -0.04855,0.174765 -0.230069,1.103815 -0.253331,1.26665 -0.01791,0.125394 0.01926,0.254805 0,0.379997 -0.02336,0.1519 -0.0926,0.29346 -0.126664,0.443328 -0.492863,2.464308 0.02652,0.07166 -0.316664,1.329984 -0.145915,0.153519 -0.02207,0.34154 -0.06333,0.506659 -0.02757,0.110291 -0.102004,0.205684 -0.126666,0.316663 -0.01831,0.08243 0.01656,0.170527 0,0.253331 -0.07774,0.388684 -0.278789,0.76046 -0.379995,1.139984 -0.03846,0.144237 -0.02713,0.298508 -0.06333,0.443328 -0.115956,0.46383 -0.12927,0.183583 -0.316661,0.633325 -0.207431,0.497832 -0.362403,1.192771 -0.189998,1.709981 0.0067,0.02003 -0.01492,0.0484 0,0.06333 0.257255,0.257257 1.069806,-0.968327 1.203317,-1.139983 0.08444,-0.105556 0.168887,-0.211111 0.253331,-0.316664 0.04222,-0.105556 0.06147,-0.223528 0.126664,-0.316664 0.08561,-0.122291 0.238823,-0.189288 0.316664,-0.316661 0.157615,-0.257914 0.2506,-0.550159 0.379994,-0.823323 0.06062,-0.127984 0.141603,-0.246906 0.189998,-0.379997 0.03679,-0.101164 0.04222,-0.211108 0.06333,-0.316661 0.04222,-0.105556 0.08444,-0.211109 0.126664,-0.316664 0.234797,-0.586986 0.448098,-1.171319 0.633325,-1.773312 0.03344,-0.108656 0.09909,-0.20637 0.126667,-0.316661 0.03621,-0.14482 0.02713,-0.298508 0.06333,-0.443328 0.02757,-0.110292 0.104368,-0.205184 0.126664,-0.316664 0.09434,-0.471673 0.06228,-0.988351 0.189997,-1.456648 0.02485,-0.09108 0.106186,-0.161168 0.126667,-0.25333 0.06477,-0.291441 0.07758,-0.592164 0.126664,-0.886656 0.17439,-1.046342 0.342672,-2.109748 0.443328,-3.166626 0.01601,-0.168127 -0.01053,-0.338103 0,-0.506661 0.102283,-1.636541 0.01799,0.417555 0.126664,-0.886656 0.03844,-0.461304 -0.03551,-0.931749 0,-1.393314 0.04114,-0.534744 0.140999,-1.122429 0.25333,-1.646648 0.0322,-0.150278 0.110578,-0.290483 0.126667,-0.443328 0.08149,-0.774202 0,-1.788146 0,-2.596634 0,-0.211108 -0.02331,-0.423508 0,-0.633325 0.0096,-0.08651 0.05467,-0.166719 0.06333,-0.25333 0.03754,-0.375412 -0.04678,-0.76576 0,-1.139987 0.02928,-0.234204 0.09909,-0.462248 0.126666,-0.696656 0.07206,-0.612518 0,-1.282176 0,-1.899978 0,-0.696931 0.126913,-1.709481 -0.189997,-2.343303 -0.01151,-0.02302 -0.352491,-0.429575 -0.379997,-0.443328 -0.189291,-0.09465 -0.547436,0.193643 -0.696656,0.25333 -0.07917,0.03167 -0.095,-0.06333 -0.19,0 -0.03927,0.02619 -0.02405,0.100481 -0.06333,0.126664 -0.03513,0.02342 -0.08746,-0.01569 -0.126666,0 -0.07067,0.02827 -0.121918,0.09263 -0.189997,0.126667 -0.01889,0.0094 -0.06333,-0.02111 -0.06333,0 0,0.08704 0.04222,0.168886 0.06333,0.253331 z"
         id="path1154-2"
         transform="translate(77.878154,-6.6628719)" /></g><path
       style="color:#000000;fill:#62a400;fill-opacity:1;stroke-width:1.00336;-inkscape-stroke:none"
       d="m 36.220465,56.067006 c -0.523627,0.807688 -1.813021,0.842614 -2.935885,0.182318 -1.122867,-0.660295 -1.594869,-1.841128 -1.054248,-2.63746 0.276765,-0.407663 1.082498,-0.439191 1.432472,-0.526625 0.346739,-0.08662 0.717215,-0.367134 1.369699,-0.830399 0.09614,0.07471 1.117657,0.62914 1.269331,0.705172 -0.297414,0.989198 -0.252707,1.184056 -0.200146,1.619124 0.02096,0.36272 0.444556,0.803556 0.118782,1.48787 z"
       id="path2173" /></g></svg>
